REM DIRINDEX 1\2,1\3
REM DIRNAME cjc145,folder01,folder02
TITLE ""
FILE "DISC2Track34.mp3" MP3
  TRACK 01 AUDIO
    TITLE "0:"
    INDEX 01 00:00:00
  TRACK 02 AUDIO
    TITLE "3:cjc145_2384"
    INDEX 01 00:00:09
  TRACK 03 AUDIO
    TITLE "0:"
    INDEX 01 00:06:10
  TRACK 04 AUDIO
    TITLE "2:cjc145_2385"
    INDEX 01 00:07:23
  TRACK 05 AUDIO
    TITLE "2:cjc145_2386"
    INDEX 01 00:09:49
  TRACK 06 AUDIO
    TITLE "2:cjc145_2387"
    INDEX 01 00:12:32
  TRACK 07 AUDIO
    TITLE "0:"
    INDEX 01 00:15:01
  TRACK 08 AUDIO
    TITLE "2:cjc145_2388"
    INDEX 01 00:15:46
  TRACK 09 AUDIO
    TITLE "2:cjc145_2389"
    INDEX 01 00:19:15
  TRACK 10 AUDIO
    TITLE "2:cjc145_2390"
    INDEX 01 00:22:23
  TRACK 11 AUDIO
    TITLE "0:"
    INDEX 01 00:25:15
  TRACK 12 AUDIO
    TITLE "2:cjc145_2391"
    INDEX 01 00:25:60
  TRACK 13 AUDIO
    TITLE "2:cjc145_2392"
    INDEX 01 00:28:13
  TRACK 14 AUDIO
    TITLE "2:cjc145_2393"
    INDEX 01 00:31:59
  TRACK 15 AUDIO
    TITLE "0:"
    INDEX 01 00:35:12
  TRACK 16 AUDIO
    TITLE "2:cjc145_2394"
    INDEX 01 00:35:59
  TRACK 17 AUDIO
    TITLE "2:cjc145_2395"
    INDEX 01 00:39:17
  TRACK 18 AUDIO
    TITLE "2:cjc145_2396"
    INDEX 01 00:41:57
  TRACK 19 AUDIO
    TITLE "0:"
    INDEX 01 00:44:01
  TRACK 20 AUDIO
    TITLE "2:cjc145_2397"
    INDEX 01 00:44:46
  TRACK 21 AUDIO
    TITLE "2:cjc145_2398"
    INDEX 01 00:48:10
  TRACK 22 AUDIO
    TITLE "2:cjc145_2399"
    INDEX 01 00:52:04
  TRACK 23 AUDIO
    TITLE "0:"
    INDEX 01 00:55:55
  TRACK 24 AUDIO
    TITLE "2:cjc145_2400"
    INDEX 01 00:56:27
  TRACK 25 AUDIO
    TITLE "2:cjc145_2401"
    INDEX 01 01:00:45
  TRACK 26 AUDIO
    TITLE "2:cjc145_2402"
    INDEX 01 01:04:47
  TRACK 27 AUDIO
    TITLE "0:"
    INDEX 01 01:08:21
  TRACK 28 AUDIO
    TITLE "2:cjc145_2403"
    INDEX 01 01:08:66
  TRACK 29 AUDIO
    TITLE "2:cjc145_2404"
    INDEX 01 01:11:52
  TRACK 30 AUDIO
    TITLE "2:cjc145_2405"
    INDEX 01 01:14:02
  TRACK 31 AUDIO
    TITLE "0:"
    INDEX 01 01:16:11
  TRACK 32 AUDIO
    TITLE "2:cjc145_2406"
    INDEX 01 01:16:56
  TRACK 33 AUDIO
    TITLE "2:cjc145_2407"
    INDEX 01 01:21:12
  TRACK 34 AUDIO
    TITLE "2:cjc145_2408"
    INDEX 01 01:25:17
  TRACK 35 AUDIO
    TITLE "0:"
    INDEX 01 01:29:05
  TRACK 36 AUDIO
    TITLE "2:cjc145_2409"
    INDEX 01 01:29:50
  TRACK 37 AUDIO
    TITLE "2:cjc145_2410"
    INDEX 01 01:34:57
  TRACK 38 AUDIO
    TITLE "2:cjc145_2411"
    INDEX 01 01:38:00
  TRACK 39 AUDIO
    TITLE "0:"
    INDEX 01 01:41:05
  TRACK 40 AUDIO
    TITLE "2:cjc145_2412"
    INDEX 01 01:41:48
  TRACK 41 AUDIO
    TITLE "2:cjc145_2413"
    INDEX 01 01:45:24
  TRACK 42 AUDIO
    TITLE "2:cjc145_2414"
    INDEX 01 01:49:04
  TRACK 43 AUDIO
    TITLE "0:"
    INDEX 01 01:52:42
  TRACK 44 AUDIO
    TITLE "2:cjc145_2415"
    INDEX 01 01:53:12
  TRACK 45 AUDIO
    TITLE "2:cjc145_2416"
    INDEX 01 01:55:44
  TRACK 46 AUDIO
    TITLE "2:cjc145_2417"
    INDEX 01 01:57:57
  TRACK 47 AUDIO
    TITLE "0:"
    INDEX 01 01:59:53
  TRACK 48 AUDIO
    TITLE "2:cjc145_2418"
    INDEX 01 02:00:24
  TRACK 49 AUDIO
    TITLE "2:cjc145_2419"
    INDEX 01 02:02:73
  TRACK 50 AUDIO
    TITLE "2:cjc145_2420"
    INDEX 01 02:05:44
  TRACK 51 AUDIO
    TITLE "0:"
    INDEX 01 02:07:73
  TRACK 52 AUDIO
    TITLE "2:cjc145_2421"
    INDEX 01 02:08:41
  TRACK 53 AUDIO
    TITLE "2:cjc145_2422"
    INDEX 01 02:10:47
  TRACK 54 AUDIO
    TITLE "2:cjc145_2423"
    INDEX 01 02:12:38
  TRACK 55 AUDIO
    TITLE "0:"
    INDEX 01 02:14:14
  TRACK 56 AUDIO
    TITLE "2:cjc145_2424"
    INDEX 01 02:14:61
  TRACK 57 AUDIO
    TITLE "2:cjc145_2425"
    INDEX 01 02:16:72
  TRACK 58 AUDIO
    TITLE "2:cjc145_2426"
    INDEX 01 02:19:19
  TRACK 59 AUDIO
    TITLE "0:"
    INDEX 01 02:21:35
